<?xml version="1.0" encoding="utf-8"?>
<!-- Generator: Adobe Illustrator 18.0.0, SVG Export Plug-In . SVG Version: 6.00 Build 0)  -->
<!DOCTYPE svg PUBLIC "-//W3C//DTD SVG 1.1//EN" "http://www.w3.org/Graphics/SVG/1.1/DTD/svg11.dtd">
<svg version="1.1" id="Calque_1" xmlns="http://www.w3.org/2000/svg" xmlns:xlink="http://www.w3.org/1999/xlink" x="0px" y="0px"
	 viewBox="0 0 640 280" enable-background="new 0 0 640 280" xml:space="preserve">
<polygon fill="#022B37" points="107,170.8 67.7,72 46.9,72 100,204 113.9,204 167,72 146.6,72 "/>
<polygon fill="#022B37" points="171,204 251,204 251,184 190,184 190,147 250,147 250,128 190,128 190,91 251,91 251,72 171,72 "/>
<path fill="#022B37" d="M351.1,113.3c0-21-14.4-42.3-43.1-42.3h-48v133h19V91h29.1c16.1,0,24,11.1,24,22.4c0,11.5-7.9,22.6-24,22.6
	H286v9.6l48,58.4h24.7L317,154C339.6,150,351.1,132,351.1,113.3"/>
<path fill="#022B37" d="M407.5,204c0-0.3,0-0.7,0-1c0-6,1.7-11.7,4.5-16.6V91h39V71h-99v20h41v113H407.5z"/>
<path fill="#623C94" d="M458,203c0-9.9-8.1-18-18-18s-18,8.1-18,18s8.1,18,18,18S458,212.9,458,203"/>
<g>
	<path fill="#623C94" d="M577.4,72h-6.2h-17l-27.5,37.8L499.1,72h-17h-6.4h-17c12.1,16,33.6,46.8,47.8,66.3l-37,50.9
		c2,4.2,3.1,8.9,3.1,13.8c0,0.3,0,0.7,0,1h3.2h6.4H499l95.2-132H577.4z"/>
	<path fill="#623C94" d="M557.7,153.5l-20.1,27.9l16.5,22.6h17h6.2h17C584.7,190.3,570.3,170.7,557.7,153.5z"/>
</g>
</svg>
