<svg width="100%" height="100%" viewBox="0 0 124 28" fill="none" xmlns="http://www.w3.org/2000/svg">
<g clip-path="url(#clip0_6866_1829)">
<path d="M35.4011 14.5114L22.1142 27.7943C21.8375 28.0711 21.3532 28.0711 21.0765 27.7943L12.1968 18.9129C11.7817 18.5015 11.5573 17.9537 11.5573 17.3722C11.5573 16.7907 11.7854 16.2428 12.1968 15.8315L12.5782 15.45C12.6081 15.4183 12.6493 15.4014 12.6867 15.4014C12.7278 15.4014 12.7671 15.4183 12.7951 15.4463L21.1868 23.8398C21.4056 24.0548 21.7814 24.0548 22.0002 23.8398L31.439 14.4011C31.6615 14.1786 31.6615 13.814 31.439 13.5915L22.0002 4.15281C21.7814 3.93778 21.4056 3.93404 21.1906 4.15281L0.912467 24.4194C0.755403 24.5765 0.536635 24.6176 0.330956 24.5353C0.125277 24.4493 0 24.2586 0 24.038V3.94526C0 3.72463 0.125277 3.53391 0.330956 3.45164C0.532896 3.36563 0.757273 3.41051 0.916207 3.56757L6.42093 9.07034C6.83228 9.48169 7.0604 10.0295 7.0604 10.611C7.0604 11.1925 6.83228 11.7441 6.42093 12.1555L6.04135 12.535C5.98713 12.5893 5.88055 12.5893 5.82259 12.535L3.40492 10.1174C3.29834 10.0108 3.15998 10.0108 3.07023 10.0501C2.97674 10.0894 2.87764 10.1847 2.87764 10.3362V17.647C2.87764 17.7985 2.97674 17.8938 3.07023 17.9331C3.15998 17.9686 3.29834 17.9724 3.40492 17.8658L21.0765 0.198218C21.3401 -0.0654216 21.8506 -0.0654216 22.1142 0.198218L35.4011 13.4812C35.6872 13.7635 35.6872 14.2291 35.4011 14.5151V14.5114Z" fill="#2D29D7"/>
<path d="M66.7195 18.4101H66.5175C66.0314 18.4101 65.7883 18.1502 65.7883 17.6304V12.352C65.7883 10.7907 65.3134 9.58843 64.3579 8.73768C63.4024 7.88693 62.0954 7.46436 60.4294 7.46436C59.3562 7.46436 58.4344 7.63825 57.6715 7.98416C56.9105 8.33007 56.3009 8.78255 55.8391 9.34723C55.6128 9.62583 55.4165 9.91938 55.2501 10.2298L57.578 11.3161C57.7519 10.9422 57.9931 10.6187 58.2979 10.3457C58.784 9.9119 59.4684 9.69501 60.4051 9.69501C61.3419 9.69501 62.0356 9.92125 62.4862 10.3719C62.935 10.8206 63.1631 11.4189 63.1631 12.1669V12.9989H59.2608C58.324 12.9989 57.4882 13.1466 56.7534 13.4402C56.0186 13.7337 55.4352 14.1713 55.0107 14.7509C54.5863 15.3305 54.375 16.0803 54.375 16.946C54.375 17.8117 54.5863 18.5503 55.0107 19.1561C55.4352 19.7619 56.0073 20.2219 56.7272 20.5341C57.4452 20.8464 58.2661 21.0016 59.1841 21.0016L59.1804 21.0053C60.0648 21.0053 60.7754 20.8819 61.3139 20.6295C61.8524 20.3808 62.2581 20.0798 62.5367 19.7339C62.8153 19.388 63.0229 19.0832 63.1612 18.8233H63.552V18.9018C63.552 19.4403 63.7409 19.8648 64.1242 20.1751C64.5075 20.4874 65.0011 20.6426 65.6069 20.6426H66.7195V18.4063V18.4101ZM63.1668 15.3343C63.1668 16.4075 62.8359 17.2508 62.1777 17.8678C61.5195 18.4849 60.6501 18.7934 59.5768 18.7934V18.7896C58.7971 18.7896 58.1801 18.6157 57.7294 18.2698C57.2807 17.9239 57.0526 17.4527 57.0526 16.8656C57.0526 16.2785 57.2676 15.8335 57.7033 15.5287C58.1389 15.2277 58.7111 15.0762 59.4197 15.0762H63.165V15.3361L63.1668 15.3343Z" fill="currentColor"/>
<path d="M50.7513 13.6698C49.9903 13.3912 49.1451 13.1762 48.2289 13.0191L47.3183 12.864C46.6265 12.7406 46.0768 12.5592 45.6692 12.318C45.2634 12.0768 45.0596 11.6935 45.0596 11.1737C45.0596 10.6913 45.2672 10.3117 45.6841 10.0443C46.1011 9.77694 46.6546 9.64232 47.4006 9.64232C48.1467 9.64232 48.7712 9.80499 49.2742 10.1247C49.6257 10.3491 49.8912 10.6875 50.0726 11.1381L52.3799 10.0612C52.0508 9.41608 51.5778 8.87197 50.9532 8.43444C50.0277 7.78002 48.8983 7.45654 47.4044 7.45654C45.9104 7.45654 44.7174 7.78749 43.8143 8.45501C42.9112 9.12065 42.4624 10.0593 42.4624 11.2746C42.4624 12.088 42.67 12.7574 43.087 13.2772C43.5039 13.797 44.0686 14.2065 44.7773 14.5C45.4878 14.7936 46.2787 15.0198 47.1444 15.1769L48.0289 15.3321C48.8796 15.4873 49.5191 15.6892 49.9529 15.9304C50.3886 16.1716 50.6036 16.5549 50.6036 17.0747C50.6036 17.5945 50.3773 18.0189 49.9155 18.348C49.4593 18.679 48.8048 18.8417 47.9541 18.8417C47.3819 18.8417 46.8509 18.7556 46.3554 18.5818C45.8618 18.4079 45.4485 18.1143 45.1176 17.6973C44.8801 17.3982 44.6913 17.0186 44.5548 16.5661L42.1895 17.6693C42.5298 18.621 43.0982 19.3671 43.8947 19.9074C44.9661 20.6348 46.318 20.9975 47.9447 20.9994C49.5546 20.9994 50.8336 20.6423 51.7872 19.9336C52.7427 19.225 53.2176 18.2246 53.2176 16.9438C53.2176 16.0781 52.9988 15.3826 52.5557 14.8628C52.1144 14.343 51.5123 13.9447 50.7494 13.6661L50.7513 13.6698Z" fill="currentColor"/>
<path d="M93.2284 6.08034C92.7086 6.08034 92.2692 5.91019 91.9158 5.5755C91.5587 5.23707 91.3848 4.79954 91.3848 4.26478C91.3848 3.73002 91.5624 3.29062 91.9158 2.95406C92.2729 2.61563 92.7067 2.44922 93.2284 2.44922C93.7501 2.44922 94.21 2.61563 94.5541 2.95406C94.9 3.29249 95.0739 3.73002 95.0739 4.26478C95.0739 4.79954 94.9 5.24267 94.5541 5.5755C94.2082 5.91393 93.7669 6.08034 93.2284 6.08034ZM91.8765 20.6385V7.82111H94.556V20.6385H91.8765Z" fill="currentColor"/>
<path d="M82.1324 21.0031C81.0741 21.0031 80.0962 20.7432 79.193 20.2234C78.2899 19.7036 77.57 18.9519 77.0222 17.9759C76.4762 16.9942 76.2051 15.8144 76.2051 14.4289V14.0381C76.2051 12.6676 76.4725 11.4896 77.011 10.5005C77.5495 9.51138 78.2675 8.75786 79.1706 8.23806C80.0737 7.71826 81.0628 7.45836 82.1361 7.45836C82.9682 7.45836 83.6675 7.56306 84.2284 7.77061C84.7931 7.97816 85.2531 8.2418 85.6177 8.56153C85.9823 8.88126 86.2609 9.21595 86.4498 9.55999H86.8667V2.43799H89.5462V20.6385H86.9191V18.8173H86.5021C86.1712 19.3707 85.6738 19.8756 85.0081 20.3262C84.3388 20.775 83.3851 21.0031 82.1361 21.0031H82.1324ZM82.8878 18.6621C84.0508 18.6621 85.0063 18.29 85.7598 17.544C86.5133 16.7979 86.8892 15.7303 86.8892 14.3448V14.111C86.8892 12.7442 86.5171 11.6859 85.771 10.938C85.025 10.192 84.062 9.81989 82.884 9.81989C81.7061 9.81989 80.7917 10.192 80.0382 10.938C79.2847 11.6841 78.9088 12.7405 78.9088 14.111V14.3448C78.9088 15.7303 79.2847 16.7961 80.0382 17.544C80.7917 18.29 81.7397 18.6621 82.884 18.6621H82.8878Z" fill="currentColor"/>
<path d="M96.8828 20.6386V7.82123H99.5099V9.74524H99.9269C100.168 9.22544 100.604 8.7393 101.228 8.28868C101.853 7.83993 102.78 7.61182 104.012 7.61182C104.983 7.61182 105.845 7.82684 106.598 8.2625C107.354 8.69629 107.948 9.30584 108.378 10.0949C108.812 10.8821 109.027 11.8338 109.027 12.9407V20.6386H106.348V13.1482C106.348 12.0376 106.069 11.2205 105.516 10.6932C104.962 10.1659 104.198 9.9023 103.227 9.9023C102.116 9.9023 101.228 10.2669 100.563 10.9943C99.8932 11.7216 99.5622 12.7818 99.5622 14.1673V20.6423H96.8828V20.6386Z" fill="currentColor"/>
<path d="M68.2714 20.6388V7.8214H70.8985V9.33031H71.3155C71.523 8.79181 71.8577 8.39729 72.3158 8.14861C72.7758 7.89619 73.3423 7.76904 74.0173 7.76904H75.5524V10.1867H73.9145C73.0488 10.1867 72.3345 10.4241 71.781 10.8991C71.2276 11.374 70.949 12.1069 70.949 13.0942V20.635H68.2695H68.2733L68.2714 20.6388Z" fill="currentColor"/>
<path d="M120.498 17.3499C120.318 17.5761 120.116 17.7893 119.89 17.9875C119.382 18.4362 118.624 18.6644 117.617 18.6644C116.543 18.6644 115.646 18.3334 114.926 17.6659C114.21 17.0002 113.83 16.1028 113.796 14.9753H123.656V13.9619C123.656 12.6624 123.396 11.5255 122.874 10.5551C122.355 9.58469 121.633 8.82743 120.704 8.28145C119.778 7.73547 118.731 7.46436 117.467 7.46436C116.203 7.46436 115.089 7.73547 114.126 8.28145C113.163 8.82743 112.417 9.59965 111.876 10.5962C111.338 11.5928 111.07 12.7577 111.07 14.0927V14.405C111.07 15.7194 111.341 16.8787 111.889 17.8753C112.435 18.87 113.193 19.6441 114.163 20.1901C115.132 20.7361 116.268 21.0072 117.566 21.0072C118.727 21.0072 119.677 20.824 120.423 20.4612C121.167 20.0966 121.769 19.6479 122.229 19.1094C122.431 18.8719 122.609 18.64 122.77 18.4138L120.496 17.3536L120.498 17.3499ZM114.986 10.643C115.618 10.097 116.435 9.82589 117.441 9.82589C118.447 9.82589 119.262 10.097 119.886 10.643C120.509 11.189 120.855 11.9462 120.926 12.9166H113.828C113.967 11.9462 114.352 11.189 114.984 10.643H114.986Z" fill="currentColor"/>
</g>
<defs>
<clipPath id="clip0_6866_1829">
<rect width="123.656" height="28" fill="white"/>
</clipPath>
</defs>
</svg>